<?xml version="1.0" encoding="UTF-8" standalone="no"?><!DOCTYPE svg PUBLIC "-//W3C//DTD SVG 1.1//EN" "http://www.w3.org/Graphics/SVG/1.1/DTD/svg11.dtd"><svg width="100%" height="100%" viewBox="0 0 1013 392" version="1.1" xmlns="http://www.w3.org/2000/svg" xmlns:xlink="http://www.w3.org/1999/xlink" xml:space="preserve" xmlns:serif="http://www.serif.com/" style="fill-rule:evenodd;clip-rule:evenodd;stroke-miterlimit:10;"><rect id="Top" x="0" y="0" width="1012.88" height="391.827" style="fill:none;"/><clipPath id="_clip1"><rect x="0" y="0" width="1012.88" height="391.827"/></clipPath><g clip-path="url(#_clip1)"><g id="OBJECTS"><path d="M473.324,-39.036c-2.957,4.408 -3.208,9.752 -3.751,14.923c-0.393,3.736 -0.737,7.471 -0.856,11.227c-0.203,6.368 0.792,11.843 2.905,17.843c3.761,10.68 9.517,20.837 18.026,28.497c4.363,3.93 9.179,7.554 14.286,10.463c5.362,3.054 10.538,4.544 16.665,4.612c4.61,0.051 8.668,-0.273 13.128,-1.681c5.522,-1.742 10.528,-4.197 15.859,-6.411c24.35,-10.108 52.956,-14.604 76.982,-1.21c23.076,12.865 36.882,37.674 57.825,53.779c17.469,13.432 39.345,20.259 61.272,22.449c17.615,1.759 37.442,-0.183 49.46,-13.181c12.614,-13.643 12.325,-34.334 17.34,-52.225c9.404,-33.548 37.858,-57.557 62.993,-81.685c21.954,-21.075 68.192,-72.322 39.621,-103.201c-4.117,-4.45 -8.836,-8.078 -13.404,-12.041c-3.772,-3.272 -7.475,-6.464 -11.786,-9.023c-3.876,-2.301 -8.04,-4.07 -12.109,-5.985c-4.447,-2.091 -8.352,-3.629 -13.112,-4.643c-5.323,-1.135 -10.564,-1.903 -15.999,-2.321c-9.341,-0.72 -18.1,2.195 -26.96,4.821c-6.165,1.827 -12.058,3.931 -17.94,6.515c-6.23,2.738 -12.598,4.845 -19.006,7.125c-10.712,3.812 -21.172,8.432 -32.171,11.431c-12.331,3.363 -24.484,6.351 -37.128,8.388c-4.764,0.767 -9.541,1.596 -14.354,1.99c-6.661,0.545 -13.507,0.099 -20.186,0.099c-6.773,-0 -13.621,0.379 -20.379,-0.101c-6.659,-0.474 -13.254,-1.791 -19.66,-3.622c-4.906,-1.404 -9.753,-2.86 -14.713,-4.071c-6.132,-1.498 -12.084,-3.714 -18.277,-4.939c-5.723,-1.133 -11.142,-3.515 -16.959,-4.19c-5.636,-0.653 -11.666,-1.129 -17.308,-0.614c-11.628,1.058 -22.478,5.034 -33.083,9.677c-5.995,2.625 -11.885,5.541 -17.276,9.268c-5.804,4.012 -10.471,9.209 -14.806,14.737c-3.429,4.372 -7.194,8.689 -9.748,13.647c-1.696,3.291 -3.23,6.708 -4.782,10.069c-2.236,4.843 -3.329,10.164 -5.45,15.056c-3.677,8.48 -5.75,17.505 -9.921,25.748c-0.861,1.701 -2.157,2.781 -3.328,4.225c-0.773,0.952 -1.057,1.984 -1.646,3.026c-0.906,1.603 -3.206,2.644 -0.264,1.529Z" style="fill:none;fill-rule:nonzero;stroke:#efd8ba;stroke-width:1px;"/><path d="M866.461,373.148c-3.487,-0.583 -7.042,-1.645 -10.65,-3.201c-27.876,-12.028 -33.087,-39.749 -47.318,-63.493c-3.303,-5.511 -7.028,-10.732 -11.457,-15.403c-17.278,-18.219 -45.992,-25.93 -56.923,-50.041c-5.205,-11.483 -4.512,-26.286 4.246,-35.355c8.834,-9.148 23.048,-10.345 35.698,-9.036c12.649,1.308 25.445,4.525 37.915,2.031c18.522,-3.705 32.457,-19.063 41.66,-34.682c9.883,-16.774 10.887,-34.436 15.428,-52.908c3.47,-14.119 10.476,-27.713 21.648,-37.016c11.172,-9.303 26.836,-13.763 40.754,-9.562c12.761,3.852 22.725,14.22 35.41,18.313c26.714,8.619 43.081,-15.984 64.108,-26.971c13.022,-6.803 30.52,-11.494 45.147,-11.432c11.211,0.048 22.959,3.941 29.91,12.738c4.445,5.625 6.572,12.722 8.016,19.745c1.013,4.928 1.723,10.14 0.139,14.916c-1.099,3.315 -3.228,6.178 -5.412,8.902c-5.873,7.328 -13.026,13.447 -18.828,20.777c-20.492,25.884 -11.344,65.674 -8.716,95.737c0.402,4.607 0.719,9.317 -0.413,13.802c-3.306,13.097 -19.678,24.548 -32.368,27.487c-18.139,4.199 -36.954,-2.296 -55.365,-1.069c-13.422,0.896 -27.001,4.75 -37.463,13.207c-28.426,22.975 -34.12,65.125 -60.292,90.462c-10.226,9.899 -22.093,14.19 -34.874,12.052Z" style="fill:none;fill-rule:nonzero;stroke:#efd8ba;stroke-width:1px;"/><path d="M1003.99,-149.263c0.702,4.435 1.044,8.04 -0.415,12.311c-6.894,20.174 -20.848,37.141 -29.893,56.427c-8.158,17.398 -13.093,37.313 -8.118,55.874c4.977,18.561 22.131,34.712 41.315,33.595c19.82,-1.154 34.052,-18.507 48.95,-31.632c14.235,-12.542 31.068,-22.123 49.121,-27.96c11.895,-3.845 24.293,-6.082 36,-10.469c22.421,-8.403 37.721,-27.002 40.811,-50.977c0.513,-3.972 0.59,-7.909 0.504,-11.919c-0.112,-5.187 -2.607,-9.733 -4.65,-14.384c-2.036,-4.633 -3.419,-9.351 -6.514,-13.428c-2.812,-3.704 -6.527,-6.559 -10.28,-9.256c-2.97,-2.134 -6.505,-3.53 -9.707,-5.319c-4.305,-2.407 -9.245,-4.229 -14.105,-5.138c-5.114,-0.958 -10.355,-0.56 -15.53,-0.588c-8.983,-0.049 -17.451,1.263 -26.211,3.121c-3.915,0.83 -7.643,1.515 -11.426,2.864c-4.045,1.441 -8.081,2.977 -12.109,4.47c-3.83,1.419 -7.792,2.618 -11.585,4.115c-2.741,1.082 -5.32,2.375 -8.149,3.249c-9.319,2.878 -18.514,7.832 -28.436,8.34c-2.636,0.135 -5.138,-0.109 -7.675,-0.542c-1.773,-0.302 -3.611,-0.736 -5.401,-0.811c-1.286,-0.053 -2.598,0.008 -3.886,0.015c-1.055,0.007 -3.212,0.505 -2.611,-1.958Z" style="fill:none;fill-rule:nonzero;stroke:#efd8ba;stroke-width:1px;"/><path d="M636.734,129.8c0.404,0.032 0.808,0.074 1.208,0.116c10.341,1.096 19.443,1.113 29.77,0.573c2.673,-0.139 5.456,-0.165 7.896,0.934c2.569,1.157 4.471,3.448 5.82,5.921c1.573,2.881 2.523,6.2 2.096,9.454c-0.427,3.254 -2.394,6.4 -5.404,7.711c-3.413,1.487 -7.329,0.454 -10.96,-0.368c-11.364,-2.573 -34.911,1.799 -38.569,-13.643c-0.993,-4.192 0.842,-9.449 5.014,-10.523c1.018,-0.262 2.075,-0.256 3.129,-0.175Z" style="fill:none;fill-rule:nonzero;stroke:#efd8ba;stroke-width:1px;"/><path d="M624.842,233.06c0.603,0.682 1.708,1.115 2.635,1.426c4.482,1.498 8.124,4.744 11.702,7.832c3.579,3.087 7.403,6.186 12.001,7.279c4.599,1.093 10.171,-0.449 12.259,-4.689c1.674,-3.402 0.746,-7.433 0.077,-11.165c-1.224,-6.831 -1.449,-13.84 -0.666,-20.736c0.231,-2.03 0.545,-4.12 0,-6.089c-0.545,-1.969 -2.23,-3.797 -4.273,-3.759c-3.312,0.061 -4.59,4.284 -4.929,7.58c-0.661,6.433 0.032,12.746 -6.426,16.219c-5.892,3.15 -12.923,2.497 -19.47,2.9c-1.404,0.086 -3.201,0.524 -3.348,1.923c-0.053,0.505 0.125,0.925 0.438,1.279Z" style="fill:none;fill-rule:nonzero;stroke:#efd8ba;stroke-width:1px;"/><path d="M669.519,242.035c0.02,-1.001 -0.035,-2.011 -0.09,-3.011c-0.455,-8.177 -0.91,-16.355 -1.365,-24.533c-0.284,-5.111 -0.708,-10.598 -3.946,-14.561c-1.981,-2.424 -5.257,-4.075 -8.266,-3.209c-2.814,0.809 -4.656,3.545 -5.608,6.315c-0.953,2.77 -1.263,5.736 -2.33,8.464c-2.081,5.317 -7.953,10.384 -13.916,10.544c-2.794,0.074 -5.611,0.01 -8.407,-0.02c-6.784,-0.071 -11.51,6.619 -8.233,12.855c1.889,3.593 5.474,5.924 8.921,8.07c7.618,4.744 15.564,9.478 24.436,10.835c3.677,0.564 7.536,0.508 10.996,-0.859c3.46,-1.367 6.467,-4.192 7.418,-7.788c0.267,-1.013 0.369,-2.053 0.39,-3.102Z" style="fill:none;fill-rule:nonzero;stroke:#efd8ba;stroke-width:1px;"/><path d="M650.328,-74.811c-1.142,1.91 -1.781,4.235 -1.759,7.031c0.067,8.795 4.608,14.367 13.259,14.496c9.911,0.148 20.323,0.455 28.746,6.309c8.344,5.799 13.578,14.84 17.923,23.8c4.66,9.609 14.908,37.844 30.171,32.294c3.992,-1.452 6.451,-5.732 6.789,-9.967c0.338,-4.234 -1.094,-8.416 -2.913,-12.255c-5.748,-12.13 -16.148,-23.291 -16.37,-37.373c-0.033,-2.06 0.202,-4.21 1.304,-5.951c1.773,-2.801 5.41,-3.89 8.722,-3.732c6.856,0.327 13.141,3.893 19.956,4.496c11.246,0.995 22.138,-7.302 24.387,-18.309c1.541,-7.543 -1.089,-15.804 -6.707,-21.069c-5.039,-4.723 -12.144,-6.93 -19.049,-6.687c-8.14,0.287 -15.5,3.693 -21.121,9.575c-4.363,4.566 -7.805,9.945 -12.133,14.545c-5.763,6.126 -14.28,11.619 -22.455,6.523c-2.687,-1.675 -4.971,-3.928 -7.623,-5.659c-9.311,-6.078 -34.276,-9.526 -41.127,1.933Z" style="fill:none;fill-rule:nonzero;stroke:#efd8ba;stroke-width:1px;"/><path d="M700.46,-10.941c-7.865,-12.381 -16.878,-25.391 -30.674,-30.373c-7.422,-2.68 -15.77,-2.812 -22.603,-6.758c-9.185,-5.305 -13.625,-17.29 -10.843,-27.525c2.782,-10.235 12.133,-18.139 22.578,-19.98c4.85,-0.855 9.847,-0.526 14.694,0.345c10.561,1.897 20.646,6.387 29.123,12.966c1.469,1.14 3.132,2.413 4.972,2.15c2.378,-0.341 3.578,-2.947 4.721,-5.061c17.723,-32.76 89.012,-29.334 82.138,15.742c-1.045,6.857 -3.36,13.934 -8.631,18.443c-7.576,6.479 -18.793,5.829 -28.612,4.106c-3.86,-0.678 -8.209,-1.363 -11.383,0.936c-2.506,1.814 -3.569,5.134 -3.397,8.222c0.174,3.089 1.402,6.013 2.715,8.813c3.786,8.076 8.495,15.938 9.901,24.745c1.406,8.808 -1.525,19.126 -9.503,23.115c-20.569,10.281 -36.198,-15.721 -45.196,-29.886Z" style="fill:none;fill-rule:nonzero;stroke:#efd8ba;stroke-width:1px;"/><path d="M679.119,-19.187c5.744,6.617 11.063,13.603 15.912,20.9c5.449,8.2 10.552,17.056 18.678,22.616c8.608,5.889 19.515,7.279 29.945,7.213c3.621,-0.023 7.358,-0.229 10.618,-1.804c2.932,-1.417 5.263,-3.848 7.162,-6.493c4.956,-6.903 7.317,-15.624 6.521,-24.085c-0.622,-6.599 -3.067,-12.89 -4.161,-19.428c-0.531,-3.171 -0.702,-6.598 0.814,-9.434c1.979,-3.702 6.25,-5.439 10.191,-6.886c9.547,-3.506 19.806,-7.501 25.225,-16.108c4.59,-7.288 4.744,-16.455 4.223,-25.052c-0.454,-7.495 -1.378,-15.183 -4.951,-21.787c-6.377,-11.785 -20.382,-17.965 -33.781,-18.074c-13.4,-0.11 -26.31,4.928 -38.273,10.967c-6.629,3.346 -13.281,7.087 -20.642,8.069c-8.494,1.133 -16.966,-1.523 -25.338,-3.357c-9.101,-1.994 -18.577,-3.031 -27.729,-1.285c-9.152,1.747 -17.997,6.548 -23.151,14.31c-9.502,14.311 -4.002,34.76 7.626,46.156c5.933,5.814 11.299,6.597 18.887,8.199c9.115,1.924 16.288,8.525 22.224,15.363Z" style="fill:none;fill-rule:nonzero;stroke:#efd8ba;stroke-width:1px;"/><path d="M740.72,-3.593c-0.025,0.474 -0.097,0.964 -0.356,1.363c-0.257,0.396 -0.675,0.661 -1.106,0.854c-2.413,1.082 -5.351,0.14 -7.319,-1.626c-1.968,-1.766 -3.166,-4.213 -4.276,-6.612c-1.247,-2.696 -10.301,-18.703 -2.929,-18.01c2.366,0.222 3.237,3.06 4.261,4.822c1.866,3.212 4.506,5.896 6.866,8.744c2.453,2.96 5.073,6.404 4.859,10.465Z" style="fill:none;fill-rule:nonzero;stroke:#efd8ba;stroke-width:1px;"/><path d="M488.723,-22.125c0.236,9.51 4.254,18.596 9.632,26.442c3.226,4.706 7.039,9.132 11.88,12.152c4.842,3.019 10.833,4.511 16.363,3.104c2.236,-0.569 4.33,-1.583 6.406,-2.592c2.761,-1.34 5.522,-2.682 8.283,-4.023c3.417,-1.659 7.092,-3.574 8.654,-7.037c1.865,-4.133 -0.045,-9.148 -3.229,-12.376c-3.184,-3.228 -7.423,-5.14 -11.397,-7.321c-1.386,-0.761 -2.793,-1.599 -3.711,-2.887c-0.979,-1.374 -1.292,-3.108 -1.439,-4.788c-0.498,-5.675 0.52,-11.763 -2.143,-16.799c-2.456,-4.644 -7.649,-7.33 -12.846,-8.094c-5.351,-0.787 -14.671,-1.121 -18.853,3.039c-5.385,5.358 -7.785,13.754 -7.6,21.18Z" style="fill:none;fill-rule:nonzero;stroke:#efd8ba;stroke-width:1px;"/><path d="M494.095,-66.293c3.425,-1.557 7.388,-1.588 11.065,-0.794c3.678,0.793 7.137,2.36 10.558,3.925c3.737,1.709 7.511,3.455 10.72,6.023c4.002,3.202 6.996,7.647 8.459,12.56c1.231,4.131 1.395,8.522 2.647,12.647c1.257,4.139 3.616,7.937 6.771,10.898c4.901,4.6 11.729,7.3 15.195,13.06c1.877,3.119 2.539,6.811 2.92,10.432c0.325,3.088 0.46,6.282 -0.528,9.225c-1.025,3.052 -3.167,5.58 -5.263,8.024c-1.884,2.2 -3.805,4.432 -6.244,5.994c-3.43,2.198 -7.595,2.891 -11.65,3.289c-7.805,0.764 -15.668,0.613 -23.509,0.461c-0.42,-0.008 -0.958,-0.109 -1.036,-0.523c-0.077,-0.413 0.842,-0.324 0.548,-0.022" style="fill:none;fill-rule:nonzero;stroke:#efd8ba;stroke-width:1px;"/><path d="M570.239,-9.469c-0.451,-1.806 -0.817,-3.679 -0.549,-5.522c0.269,-1.842 1.278,-3.669 2.956,-4.477c3.266,-1.572 7.631,1.133 10.617,-0.921c0.78,-0.537 1.367,-1.357 2.232,-1.742c1.841,-0.82 3.842,0.649 5.31,2.029c3.898,3.664 7.737,7.453 10.743,11.879c3.005,4.425 5.156,9.565 5.327,14.912c0.12,3.78 -1.018,7.958 -4.21,9.986c-1.355,0.861 -2.948,1.252 -4.514,1.602c-4.711,1.052 -9.475,1.868 -14.266,2.441c-3.984,0.477 -6.83,1.438 -7.311,-3.195c-0.985,-9.501 -4.032,-17.769 -6.335,-26.992Z" style="fill:none;fill-rule:nonzero;stroke:#efd8ba;stroke-width:1px;"/><path d="M575.813,-6.356c-0.25,-1.018 -0.44,-2.23 0.276,-2.995c0.409,-0.435 1.034,-0.61 1.631,-0.614c1.238,-0.01 2.38,0.612 3.568,0.96c1.188,0.348 2.673,0.33 3.428,-0.651c0.296,-0.384 0.435,-0.865 0.695,-1.273c0.759,-1.195 2.436,-1.526 3.791,-1.118c1.356,0.407 2.454,1.388 3.463,2.38c3.569,3.511 6.752,7.805 7.315,12.78c0.999,8.818 -6.942,13.889 -14.838,10.729c-6.516,-2.608 -7.881,-14.282 -9.329,-20.198Z" style="fill:none;fill-rule:nonzero;stroke:#efd8ba;stroke-width:1px;"/><path d="M721.646,298.485c4.819,8.925 8.048,18.696 13.532,27.229c1.099,1.711 2.385,3.448 4.26,4.235c6.072,2.548 10.786,-5.985 16.954,-8.291c5.268,-1.971 11.227,1.06 14.964,5.264c3.737,4.204 6.023,9.49 9.379,14.003c3.852,5.181 9.129,9.291 15.095,11.759c4.141,1.713 9.764,2.235 12.321,-1.446c1.932,-2.78 1.082,-6.57 -0.044,-9.764c-5.42,-15.373 -15.666,-29.006 -28.927,-38.486c-7.388,-5.281 -15.675,-9.308 -22.565,-15.224c-5.583,-4.794 -10.087,-10.691 -15.03,-16.142c-4.943,-5.452 -10.537,-10.6 -17.402,-13.251c-6.864,-2.652 -15.246,-2.373 -20.933,2.296c-6.617,5.43 -6.92,14.541 -0.615,19.314c7.83,5.928 13.867,8.977 19.011,18.504Z" style="fill:none;fill-rule:nonzero;stroke:#efd8ba;stroke-width:1px;"/><path d="M731.243,269.679c-5.376,-4.382 -12.394,-7.814 -19.097,-6.032c-1.181,0.314 -2.345,0.801 -3.249,1.624c-2.099,1.91 -2.31,5.275 -1.211,7.892c1.099,2.618 3.243,4.636 5.407,6.473c5.683,4.822 12.099,9.167 15.789,15.644c4.482,7.868 4.547,18.253 11.052,24.551c0.817,0.79 1.825,1.532 2.96,1.494c1.284,-0.043 2.296,-1.044 3.268,-1.883c5.23,-4.516 13.164,-5.607 19.419,-2.671c3.94,1.849 7.055,5.04 10.331,7.905c3.277,2.866 7.023,5.556 11.351,6.024c0.455,0.048 0.946,0.065 1.334,-0.176c0.269,-0.167 0.455,-0.438 0.618,-0.708c2.341,-3.892 1.342,-9.089 -1.235,-12.828c-2.577,-3.74 -6.456,-6.341 -10.24,-8.852c-9.745,-6.463 -19.489,-12.927 -29.233,-19.39c-3.875,-2.571 -5.201,-5.515 -7.826,-9.11c-2.704,-3.703 -5.883,-7.061 -9.438,-9.957Z" style="fill:none;fill-rule:nonzero;stroke:#efd8ba;stroke-width:1px;"/><path d="M741.789,310.108c-1.434,-1.79 -2.258,-3.977 -3.171,-6.081c-2.602,-5.998 -6.097,-11.607 -10.335,-16.585c-2.32,-2.727 -4.866,-5.271 -6.947,-8.183c-1.043,-1.46 -1.893,-3.665 -0.559,-4.865c1.259,-1.131 3.252,-0.245 4.598,0.78c4.956,3.777 8.567,8.997 12.429,13.886c3.861,4.889 8.258,9.676 14.028,12.026c2.577,1.048 5.845,2.1 6.294,4.845c0.327,2.002 -1.236,3.927 -3.113,4.698c-2.255,0.926 -5.108,1.299 -7.407,1.98c-2.276,0.673 -4.338,-0.654 -5.817,-2.501Z" style="fill:none;fill-rule:nonzero;stroke:#efd8ba;stroke-width:1px;"/><path d="M750.239,337.932c1.151,-1.194 1.901,-2.717 2.97,-3.985c1.898,-2.255 4.817,-3.615 7.764,-3.615c0.772,-0.001 1.569,0.096 2.235,0.485c1.173,0.683 1.678,2.083 2.15,3.354c1.915,5.161 4.691,10.001 8.179,14.259c0.908,1.107 1.93,2.454 1.514,3.825c-0.332,1.094 -1.541,1.746 -2.685,1.737c-1.143,-0.011 -2.215,-0.552 -3.162,-1.193c-3.417,-2.313 -5.785,-6.042 -9.456,-7.927c-3.845,-1.973 -8.449,-1.592 -12.622,-2.721c-1.176,-0.319 -2.637,-1.308 -1.417,-2.424c0.417,-0.382 1.583,-0.141 2.109,-0.305c0.93,-0.291 1.742,-0.786 2.421,-1.49Z" style="fill:none;fill-rule:nonzero;stroke:#efd8ba;stroke-width:1px;"/><path d="M681.551,252.865c-1.77,2.209 -3.337,5.394 -1.697,7.701c0.91,1.28 2.521,1.804 3.905,2.549c3.14,1.691 5.407,4.915 5.937,8.442c0.14,0.937 0.47,2.186 1.418,2.155c0.978,-0.032 1.195,-1.38 1.122,-2.357c-0.352,-4.681 -0.312,-9.545 1.538,-13.859c1.85,-4.316 5.883,-7.972 10.575,-8.135c2.762,-0.096 5.406,0.983 8.047,1.795c2.692,0.828 5.466,1.395 8.267,1.688c1.3,0.135 2.759,0.164 3.736,-0.704c0.981,-0.87 1.123,-2.332 1.13,-3.643c0.044,-8.403 -2.781,-16.793 -7.898,-23.458c-1.037,-1.351 -2.285,-2.706 -3.95,-3.065c-2.01,-0.432 -4.068,0.752 -5.38,2.335c-1.313,1.583 -2.08,3.535 -3.064,5.34c-0.985,1.806 -2.31,3.572 -4.229,4.313c-2.34,0.902 -4.94,0.081 -7.384,-0.483c-2.444,-0.563 -5.357,-0.732 -7.105,1.066c-1.357,1.395 -1.548,3.532 -1.51,5.478c0.103,5.394 0.084,8.423 -3.458,12.842Z" style="fill:none;fill-rule:nonzero;stroke:#efd8ba;stroke-width:1px;"/><path d="M684.974,252.627c1.422,-1.525 3.202,-2.901 3.756,-4.912c0.411,-1.489 0.066,-3.067 -0.009,-4.61c-0.075,-1.543 0.242,-3.296 1.525,-4.158c0.712,-0.477 1.605,-0.592 2.462,-0.601c3.272,-0.033 6.981,1.177 9.541,-0.862c2.124,-1.691 2.571,-5.104 5.02,-6.277c1.603,-0.767 3.584,-0.244 4.995,0.837c1.41,1.081 2.371,2.632 3.299,4.146c1.402,2.288 2.842,4.687 3.056,7.361c0.055,0.698 0.017,1.432 -0.323,2.044c-0.843,1.515 -2.972,1.56 -4.697,1.374c-4.644,-0.503 -9.395,-1.246 -13.936,-0.149c-4.541,1.097 -8.889,4.602 -9.295,9.255c-0.306,3.493 -0.584,7.336 -4.448,4.418c-3.071,-2.32 -3.877,-4.724 -0.946,-7.866Z" style="fill:none;fill-rule:nonzero;stroke:#efd8ba;stroke-width:1px;"/><path d="M691.078,188.596c1.596,-6.219 5.402,-11.965 10.874,-15.321c2.804,-1.721 5.974,-2.796 8.72,-4.607c3.66,-2.414 6.447,-6.125 7.742,-10.314c1.259,-4.072 1.124,-8.428 1.724,-12.648c0.431,-3.035 1.247,-6.016 2.422,-8.847c0.51,-1.227 1.2,-2.535 2.445,-3c1.115,-0.416 2.411,-0.006 3.31,0.772c0.9,0.778 1.466,1.87 1.916,2.971c1.825,4.464 2.064,9.385 2.766,14.157c0.702,4.771 2.029,9.731 5.461,13.118c2.292,2.263 5.37,3.658 7.461,6.108c2.365,2.771 3.134,6.996 1.355,10.174c-1.91,3.414 -6.019,4.862 -8.862,7.547c-4.625,4.369 -5.348,11.311 -7.372,17.342c-0.597,1.781 -1.445,3.652 -3.102,4.537c-1.888,1.01 -4.276,0.403 -6.068,-0.766c-1.794,-1.17 -3.204,-2.834 -4.87,-4.178c-1.666,-1.344 -3.787,-2.399 -5.89,-1.997c-1.491,0.285 -2.746,1.255 -3.939,2.195c-1.53,1.206 -3.059,2.413 -4.589,3.619c-2.405,1.898 -4.785,2.969 -7.619,1.2c-1.651,-1.031 -3.119,-2.515 -3.705,-4.39c-1.689,-5.413 -1.572,-12.246 -0.18,-17.672Z" style="fill:none;fill-rule:nonzero;stroke:#efd8ba;stroke-width:1px;"/><path d="M694.473,189.941c1.192,-4.938 3.909,-9.979 8.638,-11.836c2.228,-0.876 4.688,-0.956 6.985,-1.633c3.436,-1.012 6.33,-3.295 9.13,-5.527c0.906,-0.722 1.832,-1.467 2.42,-2.465c0.551,-0.935 0.764,-2.024 0.968,-3.089c0.77,-4.016 1.54,-8.033 2.311,-12.049c0.088,-0.46 0.22,-0.981 0.637,-1.194c0.738,-0.377 1.464,0.527 1.771,1.297c2.052,5.157 2.312,11.186 5.846,15.466c2.099,2.543 5.405,4.667 5.442,7.964c0.025,2.136 -1.423,4.006 -3.019,5.426c-1.595,1.42 -3.437,2.619 -4.664,4.367c-1.711,2.437 -1.979,5.563 -2.37,8.515c-0.391,2.952 -1.086,6.113 -3.325,8.076c-0.523,0.458 -1.163,0.85 -1.858,0.842c-0.827,-0.009 -1.534,-0.568 -2.149,-1.121c-1.545,-1.39 -2.974,-2.924 -4.684,-4.105c-1.709,-1.181 -3.787,-1.997 -5.845,-1.71c-5.478,0.763 -7.942,10.226 -13.356,9.526c-6.012,-0.777 -3.765,-13.076 -2.878,-16.75Z" style="fill:none;fill-rule:nonzero;stroke:#efd8ba;stroke-width:1px;stroke-linecap:round;stroke-linejoin:round;stroke-miterlimit:4;stroke-dasharray:1.97,3.95;"/><path d="M696.612,196.622c-0.036,0.629 -0.045,1.334 0.386,1.793c0.742,0.787 2.055,0.224 2.923,-0.422c3.576,-2.659 6.545,-6.209 10.567,-8.13c1.204,-0.574 2.586,-0.994 3.86,-0.599c1.273,0.394 2.162,1.504 3.11,2.441c0.948,0.936 2.234,1.791 3.527,1.467c1.754,-0.44 2.285,-2.6 2.835,-4.323c0.713,-2.238 1.985,-4.294 3.668,-5.933c0.787,-0.766 1.675,-1.457 2.242,-2.398c0.946,-1.573 0.825,-3.593 0.213,-5.324c-0.518,-1.466 -1.621,-2.974 -3.175,-3.021c-1.096,-0.033 -2.084,0.694 -2.756,1.56c-0.671,0.868 -1.115,1.888 -1.733,2.793c-2.218,3.256 -6.323,4.604 -10.194,5.338c-3.42,0.649 -8.862,0.686 -11.827,2.749c-3.359,2.339 -3.44,8.394 -3.646,12.009Z" style="fill:none;fill-rule:nonzero;stroke:#efd8ba;stroke-width:1px;"/><path d="M627.825,101.382c-9.318,-3.71 -17.612,-9.546 -25.788,-15.356c-5.497,-3.907 -10.985,-7.826 -16.474,-11.745c-5.433,-3.878 -10.865,-7.757 -16.298,-11.637c-1.091,-0.779 -2.195,-1.57 -3.05,-2.603c-3.37,-4.076 -1.575,-10.648 2.417,-14.117c3.992,-3.47 9.445,-4.612 14.653,-5.534c4.958,-0.878 10.014,-1.67 15.011,-1.052c3.313,0.408 6.518,1.428 9.664,2.545c7.503,2.666 14.913,5.991 20.961,11.17c3.06,2.622 5.72,5.675 8.662,8.429c6.152,5.759 13.454,10.137 19.963,15.489c5.34,4.39 10.412,9.993 11.106,16.87c0.218,2.163 -0.035,4.424 -1.077,6.331c-3.147,5.759 -11.167,3.904 -16.583,4.602c-7.859,1.012 -15.851,-0.479 -23.167,-3.392Z" style="fill:none;fill-rule:nonzero;stroke:#efd8ba;stroke-width:1px;"/><path d="M573.56,56.371c0.197,2.081 1.214,4.074 2.783,5.456c1.734,1.527 4.006,2.258 6.18,3.042c8.276,2.981 16.085,7.251 23.061,12.608c3.874,2.975 7.501,6.289 11.615,8.922c7.052,4.514 15.241,6.851 23.292,9.151c3.193,0.912 6.535,1.835 9.791,1.181c3.255,-0.653 6.345,-3.431 6.145,-6.745c-0.166,-2.762 -2.45,-4.915 -4.804,-6.369c-3.743,-2.311 -8.025,-3.633 -11.792,-5.905c-3.472,-2.093 -6.415,-4.939 -9.381,-7.703c-10.318,-9.614 -21.916,-18.835 -35.757,-21.538c-2.948,-0.576 -6.069,-0.831 -8.901,0.17c-2.946,1.04 -5.273,3.164 -8.471,3.307c-2.681,0.12 -4.055,1.326 -3.761,4.423Z" style="fill:none;fill-rule:nonzero;stroke:#efd8ba;stroke-width:1px;"/><path d="M584.105,57.606c-0.017,1.488 1.335,2.626 2.687,3.25c2.283,1.053 4.84,1.296 7.3,1.817c5.76,1.22 11.167,4.064 15.435,8.12c2.081,1.977 3.889,4.226 5.931,6.244c4.9,4.843 11.157,8.298 17.866,9.864c1.154,0.269 2.379,0.482 3.508,0.122c1.129,-0.358 2.105,-1.468 1.916,-2.638c-0.112,-0.693 -0.591,-1.265 -1.084,-1.765c-4.401,-4.458 -10.96,-5.905 -16.254,-9.253c-2.732,-1.727 -5.108,-3.951 -7.65,-5.947c-4.899,-3.843 -10.413,-6.826 -16.126,-9.269c-2.473,-1.057 -13.456,-7.022 -13.529,-0.545Z" style="fill:none;fill-rule:nonzero;stroke:#efd8ba;stroke-width:1px;"/><path d="M618.338,132.23c-0.768,3.951 0.192,8.06 1.763,11.766c2.623,6.186 6.983,11.624 12.451,15.527c2.711,1.936 5.68,3.499 8.321,5.528c2.641,2.029 5.004,4.645 5.878,7.86c0.468,1.723 0.486,3.532 0.758,5.297c0.358,2.314 1.185,4.605 2.695,6.395c1.511,1.79 3.762,3.03 6.105,2.997c4.08,-0.056 7.184,-3.74 8.857,-7.461c1.672,-3.723 2.576,-7.885 5.154,-11.049c4.519,-5.546 12.876,-6.509 17.814,-11.686c3.249,-3.405 4.604,-8.338 4.268,-13.033c-0.335,-4.694 -2.226,-9.169 -4.741,-13.148c-1.028,-1.626 -2.179,-3.202 -3.655,-4.437c-2.716,-2.273 -6.318,-3.212 -9.844,-3.544c-6.038,-0.568 -12.1,0.449 -18.161,0.692c-8.194,0.328 -16.76,-0.043 -24.942,-0.531c-3.027,-0.18 -4.946,-0.776 -7.714,1.13c-2.569,1.769 -4.413,4.641 -5.007,7.697Z" style="fill:none;fill-rule:nonzero;stroke:#efd8ba;stroke-width:1px;"/><path d="M650.498,168.198c1.105,2.624 1.445,5.503 2.307,8.217c0.635,1.999 1.916,4.177 4.005,4.371c0.359,0.033 0.737,-0.002 1.052,-0.18c0.51,-0.288 0.755,-0.885 0.904,-1.451c0.797,-3.021 -0.082,-6.316 0.833,-9.305c0.616,-2.01 1.993,-3.702 2.774,-5.654c0.78,-1.952 0.768,-4.539 -0.933,-5.776c-1.721,-1.251 -4.162,-0.455 -5.962,0.679c-1.799,1.136 -3.559,2.625 -5.685,2.708c-1.736,0.068 -3.414,-0.841 -5.146,-0.702c-0.977,0.078 -1.506,0.983 -0.821,1.715c0.294,0.315 1.976,0.293 2.472,0.511c1.963,0.864 3.396,2.959 4.2,4.867Z" style="fill:none;fill-rule:nonzero;stroke:#efd8ba;stroke-width:1px;"/><path d="M633.705,137.76c0.058,1.227 0.671,2.371 1.464,3.309c3.162,3.74 8.673,4.33 13.564,4.063c4.89,-0.267 10.008,-1.079 14.528,0.807c2.243,0.936 4.205,2.496 6.514,3.252c2.31,0.756 5.301,0.405 6.512,-1.702c1.065,-1.852 0.303,-4.25 -0.948,-5.981c-2.035,-2.815 -5.335,-4.676 -8.796,-4.962c-4.339,-0.359 -8.496,1.618 -12.785,2.371c-2.224,0.39 -4.505,0.45 -6.747,0.177c-2.246,-0.274 -4.443,-0.879 -6.57,-1.652c-2.172,-0.788 -6.954,-4.296 -6.736,0.318Z" style="fill:none;fill-rule:nonzero;stroke:#efd8ba;stroke-width:1px;"/><path d="M633.792,178.496c-0.142,-0.855 -0.296,-1.729 -0.145,-2.583c0.151,-0.853 0.679,-1.696 1.503,-1.965c1.076,-0.351 2.252,0.409 2.796,1.402c0.544,0.992 0.627,2.161 0.779,3.282c0.356,2.632 1.154,5.204 2.351,7.575c0.72,1.427 1.722,2.889 3.261,3.319c1.109,0.31 2.449,0.074 3.289,0.862c0.65,0.611 0.726,1.614 0.641,2.503c-0.304,3.165 -2.06,6.008 -4.083,8.46c-2.024,2.453 -4.363,4.651 -6.172,7.265c-0.974,1.408 -1.792,2.934 -2.927,4.216c-1.445,1.635 -5.683,4.113 -6.733,0.772c-0.742,-2.355 1.886,-3.542 2.81,-5.325c2.886,-5.571 3.626,-12.606 3.601,-18.781c-0.015,-3.686 -0.367,-7.367 -0.971,-11.002Z" style="fill:none;fill-rule:nonzero;stroke:#efd8ba;stroke-width:1px;"/><path d="M642.752,199.785c0.606,-0.735 0.954,-1.648 1.214,-2.564c0.135,-0.473 0.249,-0.965 0.187,-1.454c-0.062,-0.488 -0.334,-0.976 -0.786,-1.17c-0.621,-0.269 -1.355,0.079 -2.011,-0.092c-0.657,-0.171 -1.077,-0.823 -1.286,-1.469c-0.208,-0.647 -0.273,-1.341 -0.554,-1.959c-0.062,-0.137 -0.14,-0.275 -0.27,-0.352c-0.274,-0.161 -0.622,0.028 -0.846,0.253c-1.068,1.075 -0.971,2.799 -0.9,4.313c0.063,1.327 0.055,2.683 -0.237,3.986c-0.208,0.925 -1.109,2.233 -0.264,3.066c1.248,1.229 4.916,-1.542 5.753,-2.558Z" style="fill:none;fill-rule:nonzero;stroke:#efd8ba;stroke-width:1px;"/><path d="M637.68,-105.023c-15.436,3.745 -25.611,20.382 -24.855,36.248c0.754,15.866 10.694,30.273 23.573,39.569c10.316,7.446 22.82,12.393 30.632,22.434c5.375,6.91 7.945,15.538 12.063,23.263c7.615,14.286 20.857,25.473 36.213,30.595c15.356,5.122 32.663,4.124 47.328,-2.73c6.661,-3.113 13.006,-7.639 16.373,-14.175c7.15,-13.878 -1.274,-30.891 1.591,-46.237c0.152,-0.817 0.351,-1.657 0.861,-2.312c0.93,-1.192 2.589,-1.446 4.059,-1.797c6.824,-1.631 12.116,-6.99 16.28,-12.637c14.294,-19.388 19.497,-45.199 13.831,-68.61c0.02,0.587 0.04,1.174 0.06,1.76" style="fill:none;fill-rule:nonzero;stroke:#efd8ba;stroke-width:1px;"/><path d="M617.317,-100.037c-5.128,6.407 -9.972,13.07 -13.266,20.562c-3.964,9.015 -5.5,19.492 -2.144,28.751c4.332,11.954 15.641,19.632 25.458,27.712c10.325,8.498 19.614,18.254 27.597,28.982c8.881,11.936 16.279,25.213 27.387,35.112c16.753,14.93 40.393,20.411 62.777,18.814c4.552,-0.325 9.14,-0.932 13.388,-2.6c4.785,-1.88 8.949,-5.029 13.022,-8.165c8.653,-6.663 17.771,-14.312 20.081,-24.985c2.164,-10.005 -1.952,-21.619 3.897,-30.02c2.15,-3.087 5.37,-5.223 8.184,-7.719c14.45,-12.819 17.312,-33.936 19.245,-53.155c1.218,-12.101 2.435,-24.201 3.653,-36.302" style="fill:none;fill-rule:nonzero;stroke:#efd8ba;stroke-width:1px;stroke-linecap:round;stroke-linejoin:round;stroke-miterlimit:4;stroke-dasharray:2,4;"/><path d="M739.388,98.227c7.011,0.628 14.29,0.082 20.676,-2.879c6.386,-2.962 11.767,-8.608 13.208,-15.499c0.54,-2.582 0.464,-5.47 -1.082,-7.607c-1.884,-2.604 -5.506,-3.419 -8.68,-2.919c-3.175,0.5 -6.061,2.068 -8.974,3.427c-10.544,4.92 -22.705,7.3 -33.921,4.204c-5.557,-1.534 -10.862,-4.382 -16.625,-4.502c-4.261,-0.088 -7.974,2.664 -5.594,6.881c1.911,3.387 8.396,6.873 11.636,8.914c8.824,5.556 18.962,9.049 29.356,9.98Z" style="fill:none;fill-rule:nonzero;stroke:#efd8ba;stroke-width:1px;"/><path d="M737.222,93.112c5.993,1.28 12.358,1.087 18.116,-1.011c3.264,-1.189 6.725,-3.672 6.606,-7.143c-0.094,-2.73 -2.547,-4.934 -5.2,-5.584c-2.652,-0.651 -5.443,-0.076 -8.075,0.655c-4.921,1.367 -9.811,3.298 -14.918,3.205c-3.378,-0.062 -6.611,-1.05 -9.93,-1.537c-2.202,-0.324 -6.396,0.304 -4.143,3.314c1.567,2.093 5.62,3.639 7.911,4.747c3.068,1.483 6.298,2.642 9.633,3.354Z" style="fill:none;fill-rule:nonzero;stroke:#efd8ba;stroke-width:1px;"/><path d="M750.877,134.05c-1.585,0.71 -2.831,2.025 -3.795,3.47c-4.162,6.236 -3.042,15.443 2.492,20.5c5.401,4.936 14.593,6.783 16.238,13.912c0.863,3.743 -0.833,7.906 0.761,11.401c1.182,2.59 3.89,4.117 6.554,5.123c8.561,3.23 18.205,2.778 26.959,0.115c8.755,-2.662 16.731,-7.412 24.222,-12.668c4.909,-3.444 9.708,-7.179 13.394,-11.909c4.146,-5.321 6.717,-11.69 8.846,-18.091c4.559,-13.706 7.335,-27.982 12.433,-41.498c5.099,-13.515 12.929,-26.607 25.069,-34.435c5.871,-3.786 12.556,-6.215 18.289,-10.207c11.307,-7.873 18.05,-23.128 13.239,-36.04c-2.957,-7.937 -9.816,-14.053 -17.648,-17.279c-7.833,-3.225 -16.562,-3.78 -24.985,-2.882c-12.511,1.333 -25.076,6.097 -33.56,15.389c-8.614,9.435 -12.116,22.304 -15.812,34.534c-5.616,18.581 -12.305,36.839 -20.021,54.651c-2.634,6.08 -5.459,12.218 -9.928,17.109c-5.382,5.89 -12.577,9.095 -20.373,10.203c-2.998,0.426 -6.234,0.818 -9.228,0.416c-4.379,-0.587 -8.638,-3.831 -13.146,-1.814Z" style="fill:none;fill-rule:nonzero;stroke:#efd8ba;stroke-width:1px;"/><path d="M762.38,154.049c3.619,1.742 7.887,3.071 9.815,6.595c2.349,4.288 0.094,9.864 1.95,14.386c0.936,2.282 2.839,4.047 4.938,5.341c7.046,4.344 16.28,3.792 23.88,0.508c7.598,-3.283 13.882,-8.953 19.851,-14.689c6.438,-6.188 12.822,-12.763 16.445,-20.924c1.755,-3.951 2.811,-8.171 3.797,-12.381c3.047,-13.018 5.507,-26.238 10.199,-38.758c4.693,-12.52 11.857,-24.496 22.578,-32.486c6.625,-4.937 14.525,-8.31 20.033,-14.467c5.509,-6.158 7.533,-16.775 1.315,-22.215c-2.277,-1.991 -5.256,-2.943 -8.142,-3.844c-6.645,-2.074 -13.371,-4.165 -20.321,-4.558c-6.949,-0.394 -14.256,1.079 -19.662,5.464c-4.072,3.304 -6.763,7.969 -9.363,12.524c-7.421,13.007 -14.904,26.156 -19.196,40.504c-1.595,5.329 -2.735,10.787 -4.333,16.115c-5.272,17.589 -16.221,37.524 -30.709,49.265c-5.322,4.312 -10.546,4.673 -17.157,3.774c-3.341,-0.454 -9.831,-3.326 -11.985,0.023c-2.537,3.944 3.199,8.443 6.067,9.823Z" style="fill:none;fill-rule:nonzero;stroke:#efd8ba;stroke-width:1px;"/><path d="M852.779,36.628c1.074,-1.852 2.247,-3.688 3.854,-5.103c2.089,-1.839 4.786,-2.848 7.499,-3.474c3.603,-0.831 7.639,-0.977 10.742,1.035c3.706,2.402 5.08,7.426 4.149,11.743c-0.932,4.317 -3.765,7.992 -6.974,11.027c-3.209,3.035 -6.854,5.581 -10.042,8.638c-4.35,4.172 -7.765,9.214 -11.854,13.641c-2.684,2.905 -5.975,5.683 -9.919,5.968c-3.944,0.284 -8.258,-3.18 -7.403,-7.04c0.353,-1.592 1.46,-2.894 2.53,-4.124c4.049,-4.656 7.784,-8.38 9.781,-14.169c2.128,-6.169 3.964,-12.632 7.637,-18.142Z" style="fill:none;fill-rule:nonzero;stroke:#efd8ba;stroke-width:1px;"/><path d="M783.423,149.764c-1.618,1.476 -2.713,3.766 -2.096,5.868c2.726,0.988 5.857,2.429 6.398,5.278c0.477,2.508 -1.355,4.964 -1.135,7.508c0.304,3.526 4.589,5.573 8.046,4.814c3.457,-0.759 6.146,-3.406 8.535,-6.018c13.95,-15.254 24.698,-33.424 31.347,-52.996c0.908,-2.675 1.722,-5.703 0.462,-8.23c-1.841,-3.694 -7.318,-4.124 -10.814,-1.93c-9.075,5.697 -10.72,19.998 -16.652,28.372c-6.124,8.646 -16.74,10.634 -24.091,17.334Z" style="fill:none;fill-rule:nonzero;stroke:#efd8ba;stroke-width:1px;"/><path d="M792.302,154.32c0.084,0.651 0.341,1.352 0.927,1.646c0.415,0.209 0.91,0.169 1.356,0.3c0.871,0.255 1.439,1.141 1.586,2.036c0.147,0.896 -0.047,1.809 -0.248,2.694c-0.128,0.563 -0.257,1.172 -0.031,1.705c0.335,0.793 1.366,1.097 2.2,0.879c0.833,-0.217 1.503,-0.822 2.113,-1.43c3.771,-3.762 6.542,-8.385 9.273,-12.956c1.639,-2.744 3.278,-5.487 4.917,-8.23c0.129,-0.216 0.262,-0.473 0.169,-0.707c-0.1,-0.254 -0.411,-0.342 -0.682,-0.377c-3.088,-0.402 -5.928,1.655 -8.186,3.799c-2.601,2.471 -4.32,4.378 -7.907,4.587c-3.213,0.187 -5.93,2.612 -5.487,6.054Z" style="fill:none;fill-rule:nonzero;stroke:#efd8ba;stroke-width:1px;"/><path d="M842.007,73.194c-0.424,-0.066 -0.876,-0.199 -1.125,-0.548c-0.341,-0.477 -0.163,-1.141 0.083,-1.673c1.531,-3.312 4.965,-5.243 7.472,-7.894c3.143,-3.323 4.786,-7.741 6.631,-11.926c1.845,-4.185 4.145,-8.453 8.038,-10.853c0.956,-0.589 2.296,-1.014 3.117,-0.248c0.489,0.456 0.601,1.183 0.617,1.851c0.07,2.88 -1.107,5.673 -2.734,8.051c-1.627,2.378 -3.696,4.412 -5.667,6.514c-3.039,3.241 -5.872,6.674 -8.478,10.272c-2.227,3.076 -3.302,7.179 -7.954,6.454Z" style="fill:none;fill-rule:nonzero;stroke:#efd8ba;stroke-width:1px;"/><path d="M976.518,-108.557c-11.449,8.14 -19.334,20.639 -23.661,34.003c-4.327,13.365 -5.314,27.605 -4.912,41.647c0.182,6.382 0.673,12.882 3.063,18.803c5.197,12.868 18.2,20.607 30.654,26.729c7.144,3.512 14.538,6.847 22.435,7.843c18.528,2.338 36.147,-8.472 50.207,-20.763c14.061,-12.29 26.81,-26.79 43.805,-34.53c17.521,-7.978 37.865,-7.935 55.398,-15.886c25.808,-11.704 41.548,-39.463 45.693,-67.496" style="fill:none;fill-rule:nonzero;stroke:#efd8ba;stroke-width:1px;"/><path d="M889.314,-11.8c-4.81,-0.352 -10.972,-1.023 -12.239,-5.677c-0.907,-3.33 1.656,-6.749 4.744,-8.291c3.088,-1.541 6.637,-1.786 9.993,-2.594c5.408,-1.304 10.43,-4.152 14.356,-8.093c8.864,-8.893 12.872,-23.527 24.768,-27.544c1.953,-0.66 4.472,-0.81 5.722,0.83c1.55,2.034 -0.076,4.873 -1.548,6.965c-6.256,8.888 -10.182,20.262 -7.128,30.693c3.237,11.055 13.695,19.3 15.318,30.705c0.727,5.106 -1.099,13.753 -7.612,11.954c-3.82,-1.055 -9.465,-11.478 -12.723,-14.395c-9.259,-8.291 -21.22,-13.644 -33.651,-14.553Z" style="fill:none;fill-rule:nonzero;stroke:#efd8ba;stroke-width:1px;"/><path d="M943.65,27.739c-4.478,1.038 -8.49,3.943 -10.873,7.873c-0.924,1.522 -1.623,3.272 -1.449,5.044c0.351,3.596 4.134,5.929 7.713,6.431c3.578,0.501 7.23,-0.233 10.826,0.13c11.238,1.135 18.766,12.238 29.303,16.31c3.976,1.537 8.354,2.024 12.571,1.398c1.388,-0.207 2.812,-0.557 3.892,-1.451c1.311,-1.084 1.907,-2.777 2.631,-4.316c2.503,-5.312 7.243,-9.523 12.812,-11.384c3.948,-1.32 8.175,-1.482 12.278,-2.181c4.104,-0.698 8.334,-2.083 11.072,-5.219c2.738,-3.135 3.33,-8.421 0.33,-11.306c-2.132,-2.052 -5.365,-2.39 -8.324,-2.326c-10.266,0.221 -20.136,3.883 -30.318,5.214c-10.182,1.332 -21.828,-0.308 -28.246,-8.324c-2.458,-3.07 -8.577,-17.152 -14.258,-12.988c-2.761,2.024 -1.095,7.235 -1.288,9.948c-0.391,5.483 -4.027,6.071 -8.672,7.147Z" style="fill:none;fill-rule:nonzero;stroke:#efd8ba;stroke-width:1px;"/><path d="M945.237,42.292c7.38,1.57 15.778,-2.513 22.28,1.315c2.389,1.406 4.1,3.691 6.042,5.667c3.645,3.711 9.185,6.523 13.969,4.482c3.577,-1.525 5.695,-5.331 9.105,-7.199c1.927,-1.056 4.142,-1.425 6.248,-2.052c2.105,-0.627 4.253,-1.626 5.419,-3.488c1.166,-1.863 0.862,-4.756 -1.094,-5.757c-1.986,-1.015 -4.301,0.291 -6.266,1.346c-8.436,4.528 -19.101,4.62 -27.614,0.239c-4.634,-2.385 -9.13,-6.112 -14.316,-5.589c-3.166,0.319 -5.721,2.212 -8.631,3.28c-2.628,0.964 -4.517,0.133 -6.952,0.514c-5.672,0.886 -2.62,6.3 1.81,7.242Z" style="fill:none;fill-rule:nonzero;stroke:#efd8ba;stroke-width:1px;"/><path d="M988.188,317.468c2.778,3.32 6.681,5.683 10.911,6.605c3.805,0.831 7.754,0.517 11.639,0.784c3.884,0.266 7.976,1.256 10.646,4.09c3.263,3.466 3.567,8.676 3.908,13.425c0.341,4.748 1.213,10.046 5.056,12.857c3.111,2.274 7.411,2.23 11.092,1.083c3.68,-1.148 6.974,-3.253 10.458,-4.903c10.077,-4.767 21.576,-5.626 32.713,-5.095c11.136,0.531 22.187,2.367 33.332,2.675c2.833,0.08 5.923,-0.029 8.102,-1.84c3.313,-2.755 2.885,-7.964 1.482,-12.038c-4.584,-13.312 -17.918,-23.961 -31.941,-22.713c-4.695,0.418 -9.178,2.061 -13.718,3.327c-9.518,2.653 -19.488,3.672 -29.344,2.998c-6.159,-0.421 -12.461,-1.569 -17.649,-4.915c-7.625,-4.917 -11.666,-13.72 -15.031,-22.146c-0.758,-1.898 -1.527,-3.844 -2.885,-5.373c-1.357,-1.527 -3.451,-2.574 -5.442,-2.118c-2.092,0.479 -3.52,2.412 -5.465,3.318c-2.99,1.394 -6.57,0.094 -9.256,-1.821c-2.685,-1.916 -4.952,-4.446 -7.896,-5.933c-2.944,-1.488 -7.017,-1.581 -9.09,0.985c-1.102,1.365 -3.369,6.368 -3.516,8.05c-0.213,2.44 2.848,6.62 3.786,9.287c2.318,6.593 3.494,13.897 8.108,19.411Z" style="fill:none;fill-rule:nonzero;stroke:#efd8ba;stroke-width:1px;"/><path d="M987.589,307.482c1.252,3.436 2.79,6.988 5.729,9.164c6.43,4.759 15.866,0.732 23.376,3.486c2.672,0.98 5.121,2.828 7.965,2.904c0.909,0.024 1.867,-0.16 2.561,-0.748c0.57,-0.484 0.908,-1.195 1.085,-1.922c0.721,-2.956 -0.973,-5.909 -2.598,-8.483c-3.933,-6.23 -7.867,-12.462 -11.801,-18.692c-0.249,-0.396 -0.503,-0.795 -0.844,-1.113c-1.124,-1.041 -2.926,-0.936 -4.327,-0.313c-1.399,0.622 -2.569,1.664 -3.911,2.404c-2.977,1.638 -6.798,1.628 -9.768,-0.026c-1.796,-1.001 -3.24,-2.522 -4.916,-3.714c-11.874,-8.441 -3.956,13.195 -2.551,17.053Z" style="fill:none;fill-rule:nonzero;stroke:#efd8ba;stroke-width:1px;"/><path d="M998.53,309.331c4.527,0.887 9.794,-1.065 13.514,1.664c1.534,1.126 2.85,3.042 4.746,2.867c0.213,-0.02 0.431,-0.072 0.597,-0.207c0.231,-0.188 0.318,-0.497 0.376,-0.788c0.501,-2.497 -0.212,-5.209 -1.879,-7.136c-1.666,-1.926 -4.246,-3.024 -6.789,-2.888c-1.175,0.062 -2.331,0.372 -3.507,0.398c-3.751,0.085 -11.648,-7.036 -14.726,-4.596c-4.238,3.361 4.782,10.121 7.668,10.686Z" style="fill:none;fill-rule:nonzero;stroke:#efd8ba;stroke-width:1px;"/><path d="M999.376,278.908c0.717,0.538 1.552,1.07 2.44,0.95c0.603,-0.081 1.121,-0.453 1.609,-0.815c2.374,-1.767 5.186,-3.716 8.037,-2.921c2.796,0.778 4.259,3.85 6.706,5.412c0.647,0.413 1.631,0.657 2.083,0.036c0.171,-0.234 0.212,-0.536 0.247,-0.824c0.366,-2.988 0.732,-5.976 1.099,-8.963c0.069,-0.562 0.132,-1.162 -0.121,-1.669c-0.219,-0.439 -0.644,-0.738 -1.075,-0.976c-4.826,-2.67 -10.917,0.352 -16.311,-0.798c-1.593,-0.339 -3.083,-1.037 -4.632,-1.542c-3.11,-1.014 -9.462,-2.537 -8.629,2.285c0.609,3.524 5.877,7.82 8.547,9.825Z" style="fill:none;fill-rule:nonzero;stroke:#efd8ba;stroke-width:1px;"/><path d="M962.749,293.102c0.921,0.468 1.775,1.192 2.808,1.236c1.573,0.067 2.76,-1.51 3.081,-3.051c0.319,-1.542 0.078,-3.154 0.349,-4.705c0.817,-4.665 6.037,-7.886 6.088,-12.623c0.004,-0.365 -0.039,-0.765 -0.297,-1.024c-0.2,-0.201 -0.49,-0.278 -0.765,-0.344c-1.911,-0.454 -4.035,-0.752 -5.746,0.213c-1.789,1.009 -2.622,3.116 -3.114,5.11c-0.491,1.993 -0.806,4.116 -2.028,5.765c-1.234,1.667 -3.198,2.589 -4.956,3.69c-1.757,1.1 -3.494,2.653 -3.721,4.714c-0.395,3.605 5.619,-0.343 8.301,1.019Z" style="fill:none;fill-rule:nonzero;stroke:#efd8ba;stroke-width:1px;"/><path d="M855.262,347.335c-5.33,-7.168 -8.526,-15.652 -12.58,-23.612c-15.644,-30.715 -43.718,-53.061 -72.283,-72.356c-5.126,-3.463 -10.392,-6.948 -14.196,-11.827c-3.804,-4.879 -5.948,-11.512 -3.931,-17.36c3.717,-10.776 17.989,-12.761 29.356,-11.913c12.88,0.96 25.719,3.147 38.625,2.647c12.905,-0.5 26.264,-4.03 35.635,-12.917c5.765,-5.466 9.682,-12.641 12.358,-20.119c6.178,-17.259 6.072,-36.1 10.328,-53.93c4.256,-17.829 14.957,-36.249 32.725,-40.757c23.115,-5.863 45.589,14.112 69.414,13.076c11.966,-0.52 22.987,-6.306 33.547,-11.96c12.306,-6.59 24.613,-13.18 36.92,-19.769c7.721,-4.134 15.704,-8.349 24.421,-9.182c8.718,-0.833 18.453,2.572 22.472,10.353c3.512,6.798 1.889,15.257 -1.79,21.966c-3.679,6.709 -9.172,12.204 -13.901,18.219c-11.373,14.466 -18.398,32.308 -19.94,50.645c-1.726,20.544 3.262,41.019 4.241,61.611c0.193,4.056 0.196,8.289 -1.559,11.951c-1.502,3.135 -4.172,5.567 -7.03,7.547c-29.202,20.233 -73.185,-2.668 -103.422,15.98c-16.491,10.17 -23.938,29.765 -32.638,47.077c-8.198,16.314 -18.386,31.622 -30.259,45.49c-4.538,5.302 -9.745,12.357 -17.404,11.936c-7.495,-0.412 -14.907,-7.144 -19.109,-12.796Z" style="fill:none;fill-rule:nonzero;stroke:#efd8ba;stroke-width:1px;stroke-dasharray:2,4;"/><path d="M1015.59,236.87c13.752,1.492 30.109,-1.132 36.758,-13.263c3.555,-6.485 3.469,-14.275 3.291,-21.67c-0.239,-9.978 -0.48,-19.958 -0.719,-29.936c-0.199,-8.32 -0.478,-16.966 -4.277,-24.371c-3.799,-7.406 -12.226,-13.144 -20.283,-11.059c-8.33,2.155 -12.717,11.236 -14.813,19.581c-2.096,8.345 -3.273,17.514 -9.158,23.79c-10.276,10.96 -30.161,8.124 -39.816,19.635c-2.456,2.927 -3.975,6.537 -4.984,10.222c-2.971,10.857 0.125,27.239 14.173,26.178c5.899,-0.445 10.604,-2.626 16.875,-2.197c7.702,0.527 15.283,2.258 22.953,3.09Z" style="fill:none;fill-rule:nonzero;stroke:#efd8ba;stroke-width:1px;"/><path d="M888.163,165.277c0.128,-13.589 -0.779,-27.515 3.396,-40.448c4.174,-12.934 15.055,-24.905 28.638,-25.345c8.88,-0.289 17.161,4.282 24.474,9.326c4.482,3.09 8.929,6.555 11.551,11.324c2.622,4.77 2.994,11.156 -0.443,15.376c-6.046,7.423 -18.171,3.721 -27.078,7.23c-6.788,2.675 -11.121,9.413 -13.703,16.237c-2.581,6.823 -3.885,14.124 -7.043,20.701c-3.159,6.577 -8.815,12.621 -16.064,13.473c-17.362,2.035 -3.804,-19.833 -3.728,-27.874Z" style="fill:none;fill-rule:nonzero;stroke:#efd8ba;stroke-width:1px;"/><path d="M780.138,228.415c-1.855,0.128 -3.834,0.489 -5.151,1.803c-2.247,2.242 -1.501,6.092 0.089,8.84c4.757,8.221 14.547,11.75 22.408,17.083c9.64,6.542 16.685,16.165 23.53,25.591c11.52,15.867 23.063,31.766 32.933,48.708c2.37,4.069 4.718,8.288 8.318,11.323c3.599,3.035 8.815,4.66 13.106,2.722c3.777,-1.705 5.956,-5.645 7.728,-9.391c6.028,-12.748 10.386,-26.235 16.408,-38.987c6.021,-12.752 13.982,-25.03 25.512,-33.15c3.261,-2.296 6.815,-4.271 9.501,-7.219c4.055,-4.45 5.661,-10.617 6.268,-16.606c0.667,-6.567 0.264,-13.38 -2.325,-19.451c-2.59,-6.072 -7.588,-11.321 -13.928,-13.154c-8.481,-2.452 -17.89,1.36 -26.29,-1.357c-6.498,-2.103 -11.893,-7.967 -18.718,-7.746c-5.404,0.174 -9.931,4.255 -12.878,8.788c-2.948,4.532 -4.843,9.707 -8.01,14.089c-6.804,9.417 -18.772,13.996 -30.376,14.59c-16.384,0.839 -32.031,-7.587 -48.125,-6.476Z" style="fill:none;fill-rule:nonzero;stroke:#efd8ba;stroke-width:1px;"/><path d="M937.449,191.623c-9.002,-10.723 -6.125,-29.173 5.713,-36.646c6.013,-3.796 13.403,-4.842 19.575,-8.375c8.41,-4.815 13.875,-14.379 13.754,-24.069c-0.055,-4.33 -0.865,-9.418 2.345,-12.325c1.675,-1.517 4.033,-1.96 6.261,-2.335c10.225,-1.721 20.756,-3.412 29.647,-8.747c6.118,-3.67 11.139,-8.886 16.834,-13.182c7.704,-5.812 16.555,-9.879 25.327,-13.901c5.556,-2.546 12.157,-5.077 17.505,-2.117c5.193,2.875 6.687,9.726 6.211,15.643c-0.965,11.985 -8.072,23.311 -18.443,29.394c-15.984,9.374 -37.838,6.474 -51.855,18.594c-11.13,9.624 -13.997,26.083 -24.404,36.484c-5.491,5.488 -12.678,8.877 -19.129,13.198c-6.032,4.04 -10.425,9.16 -15.679,14c-3.277,3.02 -1.88,4.023 -5.882,2.632c-2.128,-0.739 -6.213,-6.381 -7.78,-8.248Z" style="fill:none;fill-rule:nonzero;stroke:#efd8ba;stroke-width:1px;"/><path d="M856.781,323.228c-3.732,-4.869 -6.295,-10.509 -9.088,-15.972c-12.861,-25.153 -31.269,-47.451 -53.532,-64.842c-1.347,-1.052 -2.837,-2.889 -1.768,-4.224c0.365,-0.455 0.943,-0.677 1.505,-0.836c4.845,-1.373 9.939,0.451 14.761,1.904c4.77,1.439 9.646,2.529 14.575,3.261c4.067,0.604 8.189,0.964 12.291,0.685c4.485,-0.306 8.879,-1.37 13.247,-2.429c5.778,-1.401 12.045,-3.118 15.541,-7.927c2.205,-3.033 2.952,-6.862 4.569,-10.245c1.617,-3.383 4.78,-6.609 8.509,-6.222c1.347,0.141 2.598,0.743 3.771,1.418c3.422,1.968 6.437,4.619 9.984,6.351c4.661,2.276 9.943,2.828 14.986,4.042c5.044,1.214 10.25,3.377 13.058,7.739c2.071,3.218 2.533,7.418 1.212,11.01c-1.505,4.09 -5.043,7.099 -8.779,9.343c-3.735,2.243 -7.808,3.923 -11.368,6.435c-10.611,7.487 -14.972,20.945 -17.849,33.607c-2.144,9.437 -3.886,19.221 -8.296,27.933c-1.454,2.871 -3.62,7.09 -7.422,6.849c-3.897,-0.248 -7.736,-5.048 -9.907,-7.88Z" style="fill:none;fill-rule:nonzero;stroke:#efd8ba;stroke-width:1px;stroke-linecap:round;stroke-linejoin:round;stroke-miterlimit:4;stroke-dasharray:1.99,3.99;"/><path d="M912.528,214.264c4.514,-0.602 9.42,-0.884 13.301,1.499c2.928,1.799 4.853,4.921 5.862,8.205c1.008,3.285 1.192,6.759 1.311,10.193c0.051,1.499 0.015,3.192 -1.076,4.219c-1.393,1.312 -3.794,0.726 -5.143,-0.63c-1.35,-1.356 -1.984,-3.241 -2.828,-4.958c-2.013,-4.094 -5.446,-7.473 -9.57,-9.423c-2.415,-1.14 -14.671,-2.614 -15.239,-4.97c-1.021,-4.244 11.486,-3.883 13.382,-4.135Z" style="fill:none;fill-rule:nonzero;stroke:#efd8ba;stroke-width:1px;"/><path d="M840.329,253.128c6.779,0.239 13.741,0.215 20.104,-2.136c3.092,-1.141 5.959,-2.805 8.81,-4.461c2.257,-1.311 4.528,-2.632 6.514,-4.327c2.289,-1.955 4.396,-4.505 7.368,-4.983c2.545,-0.41 5.033,0.835 7.311,2.042c2.518,1.335 5.21,2.849 6.368,5.454c1.543,3.474 -0.268,7.582 -2.843,10.377c-2.575,2.796 -5.894,4.857 -8.294,7.804c-1.909,2.346 -3.153,5.151 -4.375,7.918c-3.293,7.464 -6.598,14.961 -8.762,22.828c-0.651,2.37 -1.213,4.807 -2.457,6.927c-1.244,2.12 -3.33,3.917 -5.781,4.104c-2.583,0.195 -5.016,-1.442 -6.548,-3.529c-1.532,-2.088 -2.351,-4.597 -3.274,-7.017c-3.961,-10.38 -10.273,-19.855 -18.327,-27.508c-3.064,-2.912 -6.495,-5.627 -10.553,-6.812c-2.179,-0.636 -4.573,-0.853 -6.393,-2.211c-1.315,-0.984 -2.491,-3.449 -1.304,-4.94c1.288,-1.617 4.285,-0.728 5.974,-0.573c5.476,0.503 10.966,0.849 16.462,1.043Z" style="fill:none;fill-rule:nonzero;stroke:#efd8ba;stroke-width:1px;"/><path d="M858.359,281.691c0.604,1.615 1.174,3.303 2.332,4.581c1.158,1.278 3.097,2.035 4.647,1.28c1.122,-0.546 1.776,-1.716 2.339,-2.829c2.19,-4.325 4.058,-8.814 5.582,-13.417c1.279,-3.861 2.443,-8.011 5.443,-10.758c1.789,-1.637 4.143,-2.675 5.58,-4.629c1.337,-1.816 1.678,-4.32 0.878,-6.428c-0.545,-1.432 -1.736,-2.746 -3.26,-2.898c-2.437,-0.24 -4.056,2.317 -5.57,4.241c-2.683,3.412 -6.687,5.617 -10.881,6.737c-4.194,1.119 -8.593,1.225 -12.931,1.023c-5.254,-0.244 -9.977,3.982 -4.705,8.215c5.175,4.156 8.176,8.542 10.546,14.882Z" style="fill:none;fill-rule:nonzero;stroke:#efd8ba;stroke-width:1px;"/><path d="M915.084,149.811c1.882,-3.782 3.891,-7.658 7.148,-10.347c4.03,-3.325 9.44,-4.399 14.641,-4.875c3.727,-0.341 7.992,-0.698 10.215,-3.708c2.285,-3.094 1.198,-7.579 -0.937,-10.778c-4.937,-7.401 -14.338,-10.699 -23.231,-10.93c-8.029,-0.21 -16.847,2.212 -21.266,8.919c-1.123,1.703 -1.908,3.604 -2.623,5.515c-5.424,14.507 -7.079,30.059 -7.808,45.429c-0.159,3.351 -2.717,15.837 1.783,16.535c5.829,0.906 8.891,-7.589 10.592,-11.401c3.655,-8.199 7.485,-16.321 11.486,-24.359Z" style="fill:none;fill-rule:nonzero;stroke:#efd8ba;stroke-width:1px;"/><path d="M919.334,135.101c1.674,-1.788 3.46,-3.522 5.612,-4.688c2.606,-1.412 5.598,-1.913 8.359,-2.99c1.667,-0.65 3.478,-1.869 3.456,-3.658c-0.02,-1.518 -1.374,-2.658 -2.7,-3.395c-7.82,-4.349 -17.863,-2.016 -25.386,2.828c-1.875,1.208 -3.694,2.597 -4.927,4.456c-1.386,2.087 -1.933,4.603 -2.453,7.054c-1.432,6.755 -2.865,13.511 -4.298,20.267c-0.807,3.803 -2.794,9.811 -1.418,13.652c1.249,3.488 3.964,2.74 4.967,-0.207c2.708,-7.951 5.654,-15.449 10.297,-22.519c2.516,-3.833 5.357,-7.453 8.491,-10.8Z" style="fill:none;fill-rule:nonzero;stroke:#efd8ba;stroke-width:1px;"/><path d="M939.413,183.321c-0.915,-4.076 -0.203,-8.349 0.958,-12.361c0.937,-3.235 2.361,-6.628 5.275,-8.315c2.251,-1.303 4.98,-1.345 7.549,-1.744c7.648,-1.184 14.497,-5.821 19.345,-11.852c4.848,-6.031 7.836,-13.376 9.719,-20.882c0.441,-1.761 0.838,-3.566 1.744,-5.138c2.856,-4.959 9.418,-5.904 14.978,-7.256c22.662,-5.511 39.941,-25.718 62.93,-29.646c2.104,-0.359 4.301,-0.57 6.342,0.051c2.042,0.622 3.901,2.247 4.227,4.355c0.224,1.442 -0.278,2.904 -0.97,4.189c-2.454,4.559 -7.213,7.482 -12.145,9.059c-4.932,1.578 -10.143,2.008 -15.253,2.853c-20.234,3.347 -39.748,13.978 -51.159,31.02c-4.727,7.059 -7.983,15.011 -12.621,22.129c-5.763,8.844 -13.613,16.27 -22.571,21.853c-2.063,1.286 -4.181,2.524 -6.081,4.045c-1.754,1.405 -2.824,3.747 -4.467,5.035c-3.645,2.852 -7.152,-4.503 -7.8,-7.395Z" style="fill:none;fill-rule:nonzero;stroke:#efd8ba;stroke-width:1px;"/><path d="M979.312,230.867c-1.854,0.076 -3.822,0.014 -5.391,-0.979c-1.231,-0.78 -2.071,-2.05 -2.695,-3.368c-1.272,-2.692 -1.78,-5.673 -2.234,-8.615c-0.447,-2.885 -0.851,-5.862 -0.138,-8.692c1.548,-6.139 7.867,-9.849 13.987,-11.468c6.12,-1.619 12.642,-1.874 18.414,-4.474c3.463,-1.56 6.506,-3.902 9.514,-6.222c2.284,-1.762 4.603,-3.56 6.272,-5.912c2.214,-3.123 3.11,-6.962 3.959,-10.695c0.958,-4.222 1.918,-8.445 2.878,-12.668c1.039,-4.574 2.618,-9.81 6.97,-11.56c1.563,-0.628 3.318,-0.696 4.967,-0.356c3.143,0.649 5.937,2.817 7.346,5.701c1.486,3.041 1.426,6.579 1.336,9.962c-0.48,17.839 -0.959,35.678 -1.44,53.518c-0.099,3.709 -0.36,7.81 -2.995,10.424c-1.958,1.941 -4.885,2.624 -7.64,2.494c-2.755,-0.13 -5.417,-0.973 -8.079,-1.694c-4.557,-1.234 -9.21,-2.124 -13.901,-2.659c-4.056,-0.462 -8.26,-0.644 -12.126,0.665c-3.39,1.149 -6.391,3.262 -9.628,4.76c-2.972,1.376 -6.082,1.704 -9.376,1.838Z" style="fill:none;fill-rule:nonzero;stroke:#efd8ba;stroke-width:1px;"/><path d="M980.286,212.892c0.319,1.81 2.322,2.755 4.111,3.176c2.636,0.62 5.388,0.746 8.07,0.369c6.668,-0.936 13.088,-4.927 19.689,-3.602c5.019,1.008 9.777,5.034 14.66,3.495c3.169,-0.997 5.218,-4.16 6.062,-7.374c0.844,-3.213 0.744,-6.589 1.115,-9.892c0.601,-5.338 2.429,-10.462 3.339,-15.756c0.862,-5.018 0.892,-10.177 0.085,-15.203c-0.275,-1.704 -0.818,-3.626 -2.38,-4.36c-1.75,-0.823 -3.802,0.315 -5.169,1.684c-3.277,3.279 -4.808,7.91 -5.709,12.457c-0.9,4.549 -1.291,9.224 -2.792,13.61c-1.501,4.387 -4.358,8.599 -8.657,10.335c-2.512,1.014 -5.282,1.102 -7.984,1.311c-4.892,0.377 -9.678,0.879 -14.545,1.142c-3.724,0.201 -10.705,4.018 -9.895,8.608Z" style="fill:none;fill-rule:nonzero;stroke:#efd8ba;stroke-width:1px;"/><path d="M590.871,-1.981l0,7.417" style="fill:none;fill-rule:nonzero;stroke:#efd8ba;stroke-width:1px;"/><path d="M594.58,1.728l-7.417,-0" style="fill:none;fill-rule:nonzero;stroke:#efd8ba;stroke-width:1px;"/><path d="M770.353,120.161l-0,7.417" style="fill:none;fill-rule:nonzero;stroke:#efd8ba;stroke-width:1px;"/><path d="M774.061,123.87l-7.417,-0" style="fill:none;fill-rule:nonzero;stroke:#efd8ba;stroke-width:1px;"/><path d="M915.933,289.618l0,7.417" style="fill:none;fill-rule:nonzero;stroke:#efd8ba;stroke-width:1px;"/><path d="M919.641,293.326l-7.416,0" style="fill:none;fill-rule:nonzero;stroke:#efd8ba;stroke-width:1px;"/><path d="M627.726,7.72l-3.891,6.738l7.781,0l-3.89,-6.738l-3.891,6.738l7.781,0l-3.89,-6.738Z" style="fill:#ebe2d6;fill-rule:nonzero;stroke:#efd8ba;stroke-width:1px;stroke-linejoin:round;stroke-miterlimit:2;"/></g></g></svg>